<svg width="27" height="24" viewBox="0 0 27 24" fill="none" xmlns="http://www.w3.org/2000/svg">
<path d="M26.4003 16.1166L17.8167 1.24932C17.3704 0.476223 16.5456 0 15.6528 0H11.1343C12.0206 0 12.8397 0.472788 13.2828 1.24041L13.7849 2.10991L15.67 5.37457L20.8597 14.364C21.2728 15.0795 20.7564 15.9739 19.9302 15.9739L9.55076 15.9738L8.20302 18.3079C7.78979 19.0235 8.30627 19.918 9.13249 19.918H24.2054C25.0135 19.918 25.7707 19.5237 26.234 18.8617L26.3695 18.6682L26.4005 18.6144C26.8464 17.8416 26.8463 16.8894 26.4003 16.1166Z" fill="#B56FED"/>
<path d="M15.67 5.37457L13.7849 2.10991L13.2828 1.24041C12.8397 0.472788 12.0206 0 11.1343 0C10.248 0 9.42894 0.472758 8.98577 1.24027L0.334762 16.2241C-0.111408 16.9968 -0.111623 17.9491 0.334333 18.7221L2.58966 22.629C2.14896 21.8659 2.14885 20.9256 2.58966 20.1623L10.0593 7.22478C10.5401 6.3919 11.7423 6.3919 12.2232 7.22478L13.4124 9.28488L17.2753 15.9738L19.9302 15.9739C20.7564 15.9739 21.2728 15.0795 20.8597 14.364L15.67 5.37457Z" fill="#E4C7FD"/>
<path d="M26.3695 18.6682C25.9232 19.4413 25.0981 19.918 24.2054 19.918H9.13249C8.30627 19.918 7.78979 19.0235 8.20302 18.3079L9.55076 15.9738L13.4124 9.28488L12.2232 7.22478C11.7423 6.3919 10.5401 6.3919 10.0593 7.22478L2.58966 20.1623C2.14885 20.9256 2.14896 21.8659 2.58966 22.629C3.03025 23.3919 3.84434 23.8619 4.72531 23.8619H21.9282C22.8208 23.8619 23.6456 23.3857 24.0919 22.6127L25.6481 19.9178L26.3695 18.6682Z" fill="#4D1080"/>
</svg>
